<svg width="28" height="27" viewBox="0 0 28 27" fill="none" xmlns="http://www.w3.org/2000/svg">
<path d="M9.42969 0.357109C8.92188 0.482109 8.4375 0.732109 8.0625 1.07586C7.71875 1.38836 7.32031 1.98211 7.24219 2.29461L7.1875 2.51336H6.41406C5.67969 2.51336 5.63281 2.52117 5.40625 2.7243C5.22656 2.88055 5.14844 3.0368 5.11719 3.27117L5.07031 3.60711H4.19531C3.25 3.60711 2.70312 3.7243 2.14844 4.05242C1.47656 4.44305 0.90625 5.26336 0.726562 6.09148C0.601562 6.66961 0.601562 20.5446 0.726562 21.1227C0.90625 21.9509 1.47656 22.7712 2.14844 23.1618C2.89062 23.5993 3.00781 23.6071 7.10156 23.6071H10.875V21.9743L7.10938 21.9509C2.89844 21.9274 3.05469 21.943 2.61719 21.3649L2.39844 21.0837V6.13055L2.61719 5.8493C2.96094 5.39617 3.21875 5.30242 4.20312 5.26336L5.07031 5.23211L5.11719 5.6618C5.1875 6.37273 5.60156 6.9743 6.26562 7.32586C6.51562 7.46648 6.79688 7.4743 9.85938 7.49773C12.1172 7.51336 13.3125 7.49773 13.5859 7.43523C14.3984 7.26336 14.9922 6.58367 15.0859 5.73211L15.1328 5.2868L15.8125 5.26336C16.6641 5.23992 17.0469 5.33367 17.4297 5.67742C17.8594 6.06805 17.9062 6.31023 17.9062 8.32586V10.0915H19.5547L19.5078 5.9118L19.2578 5.38836C18.9453 4.71648 18.4297 4.20867 17.7656 3.89617C17.2734 3.6618 17.1797 3.64617 16.1719 3.62273L15.0938 3.59148V3.35711C15.0938 3.04461 14.9062 2.71648 14.6641 2.60711C14.5547 2.55242 14.1484 2.51336 13.7656 2.51336H13.0781L12.8516 2.02117C12.4375 1.14617 11.6094 0.505547 10.6484 0.325859C10.1328 0.232109 9.92969 0.232109 9.42969 0.357109ZM10.6172 2.08367C10.7812 2.15398 10.9766 2.26336 11.0625 2.34148C11.2734 2.52898 11.5 3.05242 11.5 3.35711C11.5 3.55242 11.5703 3.69305 11.7656 3.88836C12.0312 4.15398 12.0391 4.15398 12.7422 4.15398H13.4531V4.88836C13.4531 5.4118 13.4219 5.64617 13.3438 5.70867C13.2734 5.77117 12.3359 5.7868 10.0469 5.77898L6.85156 5.75555L6.80469 4.25555L7.47656 4.21648C8.42188 4.16961 8.65625 3.95867 8.80469 3.0368C8.85938 2.69305 9.24219 2.2243 9.58594 2.07586C9.89844 1.93523 10.2734 1.94305 10.6172 2.08367Z" fill="black"/>
<path d="M4.85938 10.7946H15.4062V9.15399H4.85938V10.7946Z" fill="black"/>
<path d="M4.85938 14.154H12.8281V12.5134H4.85938V14.154Z" fill="black"/>
<path d="M18.9062 12.5915C16.1016 13.0993 13.9219 15.0915 13.125 17.8727C12.8906 18.693 12.8672 20.6305 13.0781 21.404C13.4375 22.7087 14 23.7243 14.8359 24.6227C16.0312 25.904 17.5469 26.6696 19.2891 26.8884C21.3672 27.154 23.625 26.3727 25.1484 24.8805C27.0937 22.9587 27.8047 20.1384 26.9922 17.568C26.2422 15.1852 24.3203 13.3649 21.8516 12.7009C21.3125 12.5602 19.4687 12.4899 18.9062 12.5915ZM21.4766 14.3571C23.8125 14.9587 25.4922 16.9977 25.6172 19.3884C25.6797 20.404 25.5 21.2399 25.0391 22.2009C24.7422 22.818 24.5781 23.0446 24.0078 23.6149C23.4375 24.1852 23.2109 24.3493 22.5937 24.6462C20.9141 25.4587 19.2891 25.443 17.5938 24.6071C17.0547 24.3415 16.7969 24.154 16.2266 23.5759C15.0859 22.4352 14.625 21.3259 14.625 19.7009C14.625 18.1696 15.1406 16.9118 16.2266 15.8337C17.6172 14.4352 19.6172 13.8727 21.4766 14.3571Z" fill="black"/>
<path d="M19.2344 18.8415H17.0469V20.5602H19.2266L19.2734 22.7868L20.9531 22.8337V20.5602H23.2266L23.1797 18.8805L20.9531 18.8337V16.654H19.2344V18.8415Z" fill="black"/>
<path d="M4.85938 17.5134H10.875V15.7946H4.85938V17.5134Z" fill="black"/>
</svg>
