<svg width="107" height="27" viewBox="0 0 107 27" fill="none" xmlns="http://www.w3.org/2000/svg">
<path d="M12.9014 9.81934V7.35938H0.290039V9.81934H5.04883V23H8.07812V9.81934H12.9014ZM21.9893 23H25.0186V22.8174C24.8682 22.5238 24.7536 22.1729 24.6748 21.7646C24.596 21.3564 24.5566 20.8408 24.5566 20.2178V15.2334C24.5566 14.5602 24.4313 13.9694 24.1807 13.4609C23.93 12.9453 23.5827 12.5192 23.1387 12.1826C22.6947 11.846 22.1683 11.5918 21.5596 11.4199C20.958 11.248 20.3063 11.1621 19.6045 11.1621C18.8239 11.1621 18.1292 11.2624 17.5205 11.4629C16.9189 11.6562 16.4105 11.9212 15.9951 12.2578C15.5726 12.5944 15.2503 12.9847 15.0283 13.4287C14.8135 13.8727 14.7061 14.3418 14.7061 14.8359H17.6924C17.6924 14.6283 17.721 14.4385 17.7783 14.2666C17.8428 14.0947 17.9395 13.9479 18.0684 13.8262C18.2116 13.6901 18.3978 13.5863 18.627 13.5146C18.8561 13.4359 19.1283 13.3965 19.4434 13.3965C19.8014 13.3965 20.113 13.443 20.3779 13.5361C20.6501 13.6221 20.8757 13.7474 21.0547 13.9121C21.2266 14.0697 21.3555 14.2594 21.4414 14.4814C21.5273 14.6963 21.5703 14.9398 21.5703 15.2119V15.8994H19.9053C19.0459 15.8994 18.2832 15.9782 17.6172 16.1357C16.9583 16.2861 16.4033 16.5081 15.9521 16.8018C15.4508 17.124 15.0749 17.5358 14.8242 18.0371C14.5736 18.5312 14.4482 19.1006 14.4482 19.7451C14.4482 20.2464 14.5485 20.7119 14.749 21.1416C14.9495 21.5641 15.2288 21.9294 15.5869 22.2373C15.945 22.5452 16.3711 22.7852 16.8652 22.957C17.3665 23.1289 17.9144 23.2148 18.5088 23.2148C18.874 23.2148 19.2142 23.179 19.5293 23.1074C19.8444 23.043 20.1344 22.9499 20.3994 22.8281C20.6572 22.7135 20.8936 22.5775 21.1084 22.4199C21.3232 22.2624 21.513 22.0941 21.6777 21.915C21.7135 22.1227 21.7565 22.3197 21.8066 22.5059C21.8568 22.6921 21.9176 22.8568 21.9893 23ZM19.1426 20.9053C18.8633 20.9053 18.6162 20.873 18.4014 20.8086C18.1937 20.737 18.0182 20.6439 17.875 20.5293C17.7318 20.4076 17.6208 20.2607 17.542 20.0889C17.4704 19.9098 17.4346 19.7165 17.4346 19.5088C17.4346 19.2438 17.4847 19.0003 17.585 18.7783C17.6852 18.5492 17.8392 18.3522 18.0469 18.1875C18.2546 18.0299 18.5231 17.9082 18.8525 17.8223C19.182 17.7292 19.5794 17.6826 20.0449 17.6826H21.5703V19.6807C21.4844 19.8311 21.3662 19.9814 21.2158 20.1318C21.0654 20.2751 20.8864 20.404 20.6787 20.5186C20.471 20.6331 20.2383 20.7262 19.9805 20.7979C19.7227 20.8695 19.4434 20.9053 19.1426 20.9053ZM32.3125 18.1982L35.6104 23H39.2734L34.2783 16.2217L38.6611 11.377H35.0732L31.8613 14.9004L30.959 15.9316V6.5H27.9727V23H30.959V19.4551L32.3125 18.1982ZM46.793 23.2148C47.9173 23.2148 48.8913 22.9964 49.7148 22.5596C50.5384 22.1227 51.14 21.6357 51.5195 21.0986L50.0264 19.4873C49.6826 19.9313 49.235 20.2643 48.6836 20.4863C48.1322 20.7083 47.5628 20.8193 46.9756 20.8193C46.5602 20.8193 46.1771 20.7549 45.8262 20.626C45.4753 20.4971 45.1637 20.3145 44.8916 20.0781C44.6266 19.849 44.4154 19.5947 44.2578 19.3154C44.1003 19.029 43.9714 18.653 43.8711 18.1875V18.1553H51.7559V16.8877C51.7559 16.0355 51.6377 15.2585 51.4014 14.5566C51.165 13.8477 50.8213 13.2425 50.3701 12.7412C49.9118 12.2399 49.3532 11.8532 48.6943 11.5811C48.0426 11.3018 47.2979 11.1621 46.46 11.1621C45.6507 11.1621 44.9023 11.3089 44.2148 11.6025C43.5273 11.8962 42.9329 12.3079 42.4316 12.8379C41.9303 13.3678 41.54 14.0016 41.2607 14.7393C40.9814 15.4697 40.8418 16.279 40.8418 17.167V17.5967C40.8418 18.3773 40.9814 19.1113 41.2607 19.7988C41.5472 20.4792 41.9518 21.07 42.4746 21.5713C42.9974 22.0798 43.624 22.4808 44.3545 22.7744C45.085 23.068 45.8978 23.2148 46.793 23.2148ZM46.4385 13.5791C46.818 13.5791 47.151 13.64 47.4375 13.7617C47.7311 13.8763 47.9782 14.0339 48.1787 14.2344C48.3792 14.4421 48.5368 14.6855 48.6514 14.9648C48.766 15.2441 48.8232 15.5413 48.8232 15.8564V16.0928H43.9248C43.9964 15.7132 44.1038 15.3695 44.2471 15.0615C44.3903 14.7536 44.5693 14.4886 44.7842 14.2666C44.9919 14.0446 45.2354 13.8763 45.5146 13.7617C45.7939 13.64 46.1019 13.5791 46.4385 13.5791ZM64.5713 23V7.35938H61.542L61.5312 17.4033L57.2129 7.35938H54.1729V23H57.2129V12.9131L61.5635 23H64.5713ZM67.1709 17.0811V17.3066C67.1709 18.1589 67.2926 18.9466 67.5361 19.6699C67.7796 20.3861 68.1377 21.0091 68.6104 21.5391C69.0758 22.069 69.6488 22.4844 70.3291 22.7852C71.0166 23.0788 71.7972 23.2256 72.6709 23.2256C73.5374 23.2256 74.3109 23.0788 74.9912 22.7852C75.6715 22.4844 76.2445 22.069 76.71 21.5391C77.1755 21.0091 77.5299 20.3861 77.7734 19.6699C78.0169 18.9466 78.1387 18.1589 78.1387 17.3066V17.0811C78.1387 16.236 78.0169 15.4554 77.7734 14.7393C77.5299 14.016 77.1755 13.3893 76.71 12.8594C76.2373 12.3294 75.6608 11.9141 74.9805 11.6133C74.3001 11.3125 73.5231 11.1621 72.6494 11.1621C71.7757 11.1621 70.9987 11.3125 70.3184 11.6133C69.6452 11.9141 69.0758 12.3294 68.6104 12.8594C68.1377 13.3893 67.7796 14.016 67.5361 14.7393C67.2926 15.4554 67.1709 16.236 67.1709 17.0811ZM70.1572 17.3066V17.0811C70.1572 16.6084 70.2038 16.1608 70.2969 15.7383C70.39 15.3158 70.5368 14.9434 70.7373 14.6211C70.9378 14.2988 71.1956 14.0446 71.5107 13.8584C71.8258 13.6722 72.2054 13.5791 72.6494 13.5791C73.1006 13.5791 73.4837 13.6722 73.7988 13.8584C74.1139 14.0446 74.3717 14.2988 74.5723 14.6211C74.7656 14.9434 74.9089 15.3158 75.002 15.7383C75.0951 16.1608 75.1416 16.6084 75.1416 17.0811V17.3066C75.1416 17.7936 75.0951 18.252 75.002 18.6816C74.9089 19.1042 74.7656 19.473 74.5723 19.7881C74.3717 20.1104 74.1139 20.3646 73.7988 20.5508C73.4837 20.737 73.1077 20.8301 72.6709 20.8301C72.2197 20.8301 71.833 20.737 71.5107 20.5508C71.1956 20.3646 70.9378 20.1104 70.7373 19.7881C70.5368 19.473 70.39 19.1042 70.2969 18.6816C70.2038 18.252 70.1572 17.7936 70.1572 17.3066ZM86.2705 8.53027H83.2842V11.377H80.6309V13.5791H83.2842V18.8643C83.2842 19.6305 83.3844 20.2894 83.585 20.8408C83.7855 21.3851 84.0719 21.8327 84.4443 22.1836C84.8096 22.5417 85.25 22.8066 85.7656 22.9785C86.2884 23.1432 86.8685 23.2256 87.5059 23.2256C87.8353 23.2256 88.1683 23.2077 88.5049 23.1719C88.8486 23.1432 89.1781 23.1003 89.4932 23.043C89.8083 22.9857 90.1055 22.9141 90.3848 22.8281C90.6641 22.735 90.9076 22.6276 91.1152 22.5059L90.8252 20.4541C90.6891 20.4899 90.5244 20.5257 90.3311 20.5615C90.1449 20.5973 89.9443 20.6296 89.7295 20.6582C89.5075 20.694 89.2747 20.7227 89.0312 20.7441C88.7949 20.7656 88.5622 20.7764 88.333 20.7764C88.0179 20.7764 87.7314 20.7406 87.4736 20.6689C87.223 20.5973 87.0081 20.4756 86.8291 20.3037C86.6501 20.139 86.5104 19.917 86.4102 19.6377C86.3171 19.3512 86.2705 18.9967 86.2705 18.5742V13.5791H90.6104V11.377H86.2705V8.53027ZM99.6445 23.2148C100.769 23.2148 101.743 22.9964 102.566 22.5596C103.39 22.1227 103.992 21.6357 104.371 21.0986L102.878 19.4873C102.534 19.9313 102.087 20.2643 101.535 20.4863C100.984 20.7083 100.414 20.8193 99.8271 20.8193C99.4118 20.8193 99.0286 20.7549 98.6777 20.626C98.3268 20.4971 98.0153 20.3145 97.7432 20.0781C97.4782 19.849 97.2669 19.5947 97.1094 19.3154C96.9518 19.029 96.8229 18.653 96.7227 18.1875V18.1553H104.607V16.8877C104.607 16.0355 104.489 15.2585 104.253 14.5566C104.017 13.8477 103.673 13.2425 103.222 12.7412C102.763 12.2399 102.205 11.8532 101.546 11.5811C100.894 11.3018 100.149 11.1621 99.3115 11.1621C98.5023 11.1621 97.7539 11.3089 97.0664 11.6025C96.3789 11.8962 95.7845 12.3079 95.2832 12.8379C94.7819 13.3678 94.3916 14.0016 94.1123 14.7393C93.833 15.4697 93.6934 16.279 93.6934 17.167V17.5967C93.6934 18.3773 93.833 19.1113 94.1123 19.7988C94.3988 20.4792 94.8034 21.07 95.3262 21.5713C95.849 22.0798 96.4756 22.4808 97.2061 22.7744C97.9365 23.068 98.7493 23.2148 99.6445 23.2148ZM99.29 13.5791C99.6696 13.5791 100.003 13.64 100.289 13.7617C100.583 13.8763 100.83 14.0339 101.03 14.2344C101.231 14.4421 101.388 14.6855 101.503 14.9648C101.618 15.2441 101.675 15.5413 101.675 15.8564V16.0928H96.7764C96.848 15.7132 96.9554 15.3695 97.0986 15.0615C97.2419 14.7536 97.4209 14.4886 97.6357 14.2666C97.8434 14.0446 98.0869 13.8763 98.3662 13.7617C98.6455 13.64 98.9535 13.5791 99.29 13.5791Z" fill="white"/>
</svg>
